<?xml version="1.0" encoding="UTF-8"?>
<svg xmlns="http://www.w3.org/2000/svg" xmlns:xlink="http://www.w3.org/1999/xlink" width="35px" height="35px" viewBox="0 0 35 35" version="1.1">
<defs>
<linearGradient id="linear0" gradientUnits="userSpaceOnUse" x1="-23.235" y1="97.431" x2="-23.235" y2="61.386" gradientTransform="matrix(1.038445,0,0,1.037884,49.804969,-78.407862)">
<stop offset="0" style="stop-color:rgb(10.196078%,10.196078%,10.196078%);stop-opacity:0.101961;"/>
<stop offset="0.123" style="stop-color:rgb(12.941176%,12.941176%,12.941176%);stop-opacity:0.152941;"/>
<stop offset="0.308" style="stop-color:rgb(20.784314%,20.784314%,20.784314%);stop-opacity:0.227451;"/>
<stop offset="0.532" style="stop-color:rgb(34.117647%,34.117647%,34.117647%);stop-opacity:0.317647;"/>
<stop offset="0.783" style="stop-color:rgb(52.156863%,52.156863%,52.156863%);stop-opacity:0.419608;"/>
<stop offset="1" style="stop-color:rgb(70.196078%,70.196078%,70.196078%);stop-opacity:0.509804;"/>
</linearGradient>
</defs>
<g id="surface1">
<path style=" stroke:none;fill-rule:nonzero;fill:rgb(100%,100%,100%);fill-opacity:1;" d="M 34.777344 21.460938 C 34.777344 21.726562 34.671875 21.980469 34.484375 22.164062 C 34.300781 22.351562 34.046875 22.457031 33.78125 22.457031 L 1.226562 22.457031 C 0.675781 22.457031 0.230469 22.011719 0.230469 21.460938 L 0.230469 13.539062 C 0.230469 12.988281 0.675781 12.542969 1.226562 12.542969 L 33.78125 12.542969 C 34.332031 12.542969 34.777344 12.988281 34.777344 13.539062 Z M 34.777344 21.460938 "/>
<path style=" stroke:none;fill-rule:nonzero;fill:rgb(65.098039%,65.098039%,65.098039%);fill-opacity:1;" d="M 33.78125 22.6875 L 1.226562 22.6875 C 0.550781 22.6875 0 22.140625 0 21.460938 L 0 13.539062 C 0 12.863281 0.550781 12.3125 1.226562 12.3125 L 33.78125 12.3125 C 34.460938 12.3125 35.007812 12.863281 35.007812 13.539062 L 35.007812 21.460938 C 35.007812 22.136719 34.457031 22.6875 33.78125 22.6875 Z M 33.78125 22.6875 "/>
<path style=" stroke:none;fill-rule:nonzero;fill:rgb(0%,0%,0%);fill-opacity:1;" d="M 34.777344 21.460938 C 34.777344 21.726562 34.671875 21.980469 34.484375 22.164062 C 34.300781 22.351562 34.046875 22.457031 33.78125 22.457031 L 1.226562 22.457031 C 0.675781 22.457031 0.230469 22.011719 0.230469 21.460938 L 0.230469 13.539062 C 0.230469 12.988281 0.675781 12.542969 1.226562 12.542969 L 33.78125 12.542969 C 34.332031 12.542969 34.777344 12.988281 34.777344 13.539062 Z M 34.777344 21.460938 "/>
<path style=" stroke:none;fill-rule:nonzero;fill:rgb(100%,100%,100%);fill-opacity:1;" d="M 7.816406 17.445312 C 7.808594 16.609375 8.503906 16.203125 8.535156 16.183594 C 8.140625 15.613281 7.535156 15.535156 7.320312 15.527344 C 6.808594 15.472656 6.316406 15.832031 6.054688 15.832031 C 5.789062 15.832031 5.390625 15.535156 4.957031 15.542969 C 4.402344 15.550781 3.882812 15.871094 3.597656 16.371094 C 3.011719 17.390625 3.449219 18.882812 4.011719 19.707031 C 4.292969 20.109375 4.625 20.558594 5.054688 20.542969 C 5.476562 20.527344 5.632812 20.273438 6.140625 20.273438 C 6.644531 20.273438 6.792969 20.542969 7.234375 20.535156 C 7.6875 20.527344 7.972656 20.128906 8.242188 19.722656 C 8.570312 19.261719 8.699219 18.804688 8.703125 18.78125 C 8.695312 18.777344 7.824219 18.449219 7.816406 17.445312 Z M 6.988281 14.988281 C 7.214844 14.703125 7.367188 14.316406 7.324219 13.925781 C 6.996094 13.941406 6.585938 14.152344 6.351562 14.429688 C 6.140625 14.675781 5.953125 15.074219 6.003906 15.453125 C 6.371094 15.480469 6.75 15.265625 6.988281 14.988281 Z M 6.988281 14.988281 "/>
<path style=" stroke:none;fill-rule:nonzero;fill:url(#linear0);" d="M 33.78125 12.3125 L 16.34375 12.3125 L 23.175781 22.6875 L 33.78125 22.6875 C 34.460938 22.6875 35.007812 22.136719 35.007812 21.460938 L 35.007812 13.539062 C 35.007812 12.863281 34.460938 12.3125 33.78125 12.3125 Z M 33.78125 12.3125 "/>
<path style=" stroke:none;fill-rule:nonzero;fill:rgb(100%,100%,100%);fill-opacity:1;" d="M 13.925781 20.484375 L 13.335938 20.484375 L 13.011719 19.472656 L 11.890625 19.472656 L 11.582031 20.484375 L 11.007812 20.484375 L 12.121094 17.035156 L 12.808594 17.035156 Z M 12.914062 19.046875 L 12.625 18.144531 C 12.59375 18.054688 12.535156 17.835938 12.449219 17.496094 L 12.4375 17.496094 C 12.40625 17.640625 12.351562 17.859375 12.273438 18.144531 L 11.988281 19.046875 Z M 16.777344 19.210938 C 16.777344 19.632812 16.664062 19.96875 16.433594 20.214844 C 16.226562 20.433594 15.972656 20.542969 15.664062 20.542969 C 15.335938 20.542969 15.097656 20.425781 14.953125 20.1875 L 14.953125 21.496094 L 14.402344 21.496094 L 14.402344 18.816406 C 14.402344 18.546875 14.394531 18.277344 14.378906 17.996094 L 14.867188 17.996094 L 14.898438 18.390625 L 14.910156 18.390625 C 15.09375 18.09375 15.371094 17.945312 15.75 17.945312 C 16.042969 17.945312 16.289062 18.0625 16.484375 18.292969 C 16.679688 18.527344 16.777344 18.832031 16.777344 19.210938 Z M 16.214844 19.230469 C 16.214844 18.988281 16.160156 18.789062 16.050781 18.632812 C 15.929688 18.46875 15.769531 18.386719 15.570312 18.386719 C 15.433594 18.386719 15.308594 18.429688 15.199219 18.519531 C 15.085938 18.613281 15.015625 18.730469 14.980469 18.878906 C 14.964844 18.933594 14.957031 18.988281 14.953125 19.046875 L 14.953125 19.460938 C 14.953125 19.640625 15.007812 19.792969 15.121094 19.917969 C 15.230469 20.042969 15.375 20.105469 15.554688 20.105469 C 15.761719 20.105469 15.925781 20.027344 16.039062 19.867188 C 16.15625 19.707031 16.214844 19.492188 16.214844 19.230469 Z M 19.640625 19.210938 C 19.640625 19.632812 19.527344 19.96875 19.296875 20.214844 C 19.089844 20.433594 18.835938 20.542969 18.527344 20.542969 C 18.199219 20.542969 17.960938 20.425781 17.816406 20.1875 L 17.816406 21.496094 L 17.265625 21.496094 L 17.265625 18.816406 C 17.265625 18.546875 17.257812 18.277344 17.246094 17.996094 L 17.730469 17.996094 L 17.761719 18.390625 L 17.773438 18.390625 C 17.957031 18.09375 18.234375 17.945312 18.613281 17.945312 C 18.90625 17.945312 19.152344 18.0625 19.347656 18.292969 C 19.542969 18.527344 19.640625 18.832031 19.640625 19.210938 Z M 19.078125 19.230469 C 19.078125 18.988281 19.023438 18.789062 18.914062 18.632812 C 18.792969 18.46875 18.632812 18.386719 18.433594 18.386719 C 18.296875 18.386719 18.171875 18.429688 18.0625 18.519531 C 17.949219 18.613281 17.878906 18.730469 17.84375 18.878906 C 17.828125 18.945312 17.816406 19 17.816406 19.046875 L 17.816406 19.460938 C 17.816406 19.640625 17.875 19.792969 17.984375 19.917969 C 18.09375 20.042969 18.238281 20.105469 18.417969 20.105469 C 18.625 20.105469 18.789062 20.027344 18.902344 19.867188 C 19.019531 19.707031 19.078125 19.492188 19.078125 19.230469 Z M 22.84375 19.515625 C 22.84375 19.8125 22.742188 20.050781 22.535156 20.234375 C 22.3125 20.4375 22 20.535156 21.597656 20.535156 C 21.222656 20.535156 20.925781 20.464844 20.703125 20.320312 L 20.828125 19.859375 C 21.074219 20.003906 21.339844 20.074219 21.628906 20.074219 C 21.835938 20.074219 22 20.027344 22.117188 19.933594 C 22.230469 19.839844 22.289062 19.714844 22.289062 19.558594 C 22.289062 19.417969 22.242188 19.300781 22.144531 19.207031 C 22.050781 19.109375 21.890625 19.019531 21.671875 18.9375 C 21.066406 18.714844 20.761719 18.382812 20.761719 17.949219 C 20.761719 17.667969 20.871094 17.433594 21.082031 17.253906 C 21.296875 17.074219 21.578125 16.984375 21.929688 16.984375 C 22.246094 16.984375 22.507812 17.039062 22.714844 17.144531 L 22.574219 17.597656 C 22.378906 17.492188 22.160156 17.4375 21.914062 17.4375 C 21.71875 17.4375 21.5625 17.488281 21.453125 17.582031 C 21.363281 17.667969 21.316406 17.769531 21.316406 17.894531 C 21.316406 18.03125 21.371094 18.144531 21.476562 18.234375 C 21.566406 18.316406 21.734375 18.402344 21.976562 18.5 C 22.273438 18.617188 22.492188 18.757812 22.632812 18.917969 C 22.773438 19.078125 22.84375 19.277344 22.84375 19.515625 Z M 24.675781 18.410156 L 24.066406 18.410156 L 24.066406 19.621094 C 24.066406 19.925781 24.175781 20.082031 24.390625 20.082031 C 24.488281 20.082031 24.570312 20.074219 24.636719 20.054688 L 24.652344 20.476562 C 24.542969 20.515625 24.398438 20.535156 24.222656 20.535156 C 24.003906 20.535156 23.832031 20.46875 23.707031 20.335938 C 23.585938 20.203125 23.523438 19.980469 23.523438 19.664062 L 23.523438 18.410156 L 23.160156 18.410156 L 23.160156 17.996094 L 23.523438 17.996094 L 23.523438 17.539062 L 24.066406 17.375 L 24.066406 17.996094 L 24.675781 17.996094 Z M 27.421875 19.21875 C 27.421875 19.601562 27.3125 19.917969 27.09375 20.164062 C 26.867188 20.414062 26.5625 20.542969 26.183594 20.542969 C 25.816406 20.542969 25.527344 20.421875 25.308594 20.179688 C 25.09375 19.9375 24.984375 19.628906 24.984375 19.261719 C 24.984375 18.875 25.097656 18.558594 25.320312 18.316406 C 25.542969 18.070312 25.84375 17.945312 26.222656 17.945312 C 26.589844 17.945312 26.882812 18.066406 27.105469 18.308594 C 27.316406 18.542969 27.421875 18.847656 27.421875 19.21875 Z M 26.847656 19.234375 C 26.847656 19.003906 26.800781 18.808594 26.703125 18.644531 C 26.585938 18.449219 26.417969 18.347656 26.203125 18.347656 C 25.984375 18.347656 25.8125 18.449219 25.695312 18.644531 C 25.597656 18.808594 25.546875 19.007812 25.546875 19.242188 C 25.546875 19.472656 25.597656 19.667969 25.695312 19.832031 C 25.816406 20.027344 25.984375 20.128906 26.199219 20.128906 C 26.410156 20.128906 26.578125 20.027344 26.695312 19.828125 C 26.796875 19.660156 26.847656 19.460938 26.847656 19.234375 Z M 29.222656 18.484375 C 29.164062 18.472656 29.105469 18.46875 29.046875 18.46875 C 28.851562 18.46875 28.703125 18.539062 28.597656 18.6875 C 28.503906 18.816406 28.457031 18.980469 28.457031 19.179688 L 28.457031 20.484375 L 27.90625 20.484375 L 27.90625 18.78125 C 27.90625 18.519531 27.902344 18.257812 27.890625 17.996094 L 28.371094 17.996094 L 28.390625 18.472656 L 28.40625 18.472656 C 28.464844 18.308594 28.558594 18.175781 28.683594 18.078125 C 28.796875 17.992188 28.9375 17.945312 29.082031 17.945312 C 29.132812 17.945312 29.179688 17.949219 29.222656 17.957031 Z M 31.695312 19.125 C 31.699219 19.207031 31.691406 19.292969 31.675781 19.375 L 30.015625 19.375 C 30.023438 19.621094 30.101562 19.808594 30.257812 19.9375 C 30.398438 20.054688 30.578125 20.113281 30.800781 20.113281 C 31.046875 20.113281 31.269531 20.074219 31.472656 19.996094 L 31.558594 20.378906 C 31.320312 20.480469 31.042969 20.53125 30.722656 20.53125 C 30.335938 20.53125 30.035156 20.417969 29.8125 20.191406 C 29.59375 19.964844 29.484375 19.660156 29.484375 19.277344 C 29.484375 18.902344 29.585938 18.589844 29.789062 18.339844 C 30.003906 18.074219 30.296875 17.941406 30.660156 17.941406 C 31.019531 17.941406 31.292969 18.074219 31.476562 18.339844 C 31.621094 18.550781 31.695312 18.8125 31.695312 19.125 Z M 31.167969 18.980469 C 31.171875 18.816406 31.136719 18.675781 31.0625 18.554688 C 30.964844 18.402344 30.816406 18.324219 30.621094 18.324219 C 30.441406 18.324219 30.292969 18.398438 30.179688 18.550781 C 30.089844 18.667969 30.035156 18.8125 30.015625 18.980469 Z M 31.167969 18.980469 "/>
<path style=" stroke:none;fill-rule:nonzero;fill:rgb(100%,100%,100%);fill-opacity:1;" d="M 11.730469 15.8125 C 11.578125 15.8125 11.445312 15.804688 11.332031 15.792969 L 11.332031 14.125 C 11.488281 14.101562 11.644531 14.089844 11.800781 14.089844 C 12.4375 14.089844 12.726562 14.402344 12.726562 14.910156 C 12.726562 15.496094 12.382812 15.8125 11.730469 15.8125 Z M 11.824219 14.300781 C 11.738281 14.300781 11.664062 14.308594 11.605469 14.320312 L 11.605469 15.589844 C 11.636719 15.59375 11.699219 15.597656 11.789062 15.597656 C 12.203125 15.597656 12.441406 15.359375 12.441406 14.917969 C 12.441406 14.523438 12.226562 14.300781 11.824219 14.300781 Z M 13.636719 15.824219 C 13.28125 15.824219 13.050781 15.558594 13.050781 15.195312 C 13.050781 14.820312 13.285156 14.550781 13.660156 14.550781 C 14.011719 14.550781 14.246094 14.804688 14.246094 15.175781 C 14.246094 15.558594 14.003906 15.824219 13.636719 15.824219 Z M 13.648438 14.75 C 13.453125 14.75 13.328125 14.933594 13.328125 15.1875 C 13.328125 15.441406 13.453125 15.625 13.644531 15.625 C 13.835938 15.625 13.964844 15.429688 13.964844 15.183594 C 13.964844 14.933594 13.839844 14.75 13.648438 14.75 Z M 16.285156 14.574219 L 15.902344 15.796875 L 15.65625 15.796875 L 15.496094 15.265625 C 15.457031 15.136719 15.425781 15.003906 15.398438 14.871094 L 15.394531 14.871094 C 15.371094 15.003906 15.335938 15.140625 15.292969 15.265625 L 15.125 15.796875 L 14.875 15.796875 L 14.515625 14.574219 L 14.792969 14.574219 L 14.933594 15.15625 C 14.964844 15.292969 14.992188 15.425781 15.015625 15.550781 L 15.019531 15.550781 C 15.039062 15.445312 15.074219 15.316406 15.121094 15.160156 L 15.292969 14.574219 L 15.515625 14.574219 L 15.683594 15.144531 C 15.722656 15.285156 15.753906 15.421875 15.78125 15.550781 L 15.789062 15.550781 C 15.804688 15.421875 15.832031 15.289062 15.871094 15.144531 L 16.019531 14.574219 Z M 17.695312 15.796875 L 17.421875 15.796875 L 17.421875 15.09375 C 17.421875 14.878906 17.339844 14.769531 17.175781 14.769531 C 17.015625 14.769531 16.90625 14.910156 16.90625 15.070312 L 16.90625 15.796875 L 16.632812 15.796875 L 16.632812 14.925781 C 16.632812 14.816406 16.628906 14.699219 16.625 14.574219 L 16.863281 14.574219 L 16.875 14.761719 L 16.882812 14.761719 C 16.957031 14.632812 17.105469 14.550781 17.269531 14.550781 C 17.527344 14.550781 17.695312 14.746094 17.695312 15.066406 Z M 18.445312 15.796875 L 18.171875 15.796875 L 18.171875 14.011719 L 18.445312 14.011719 Z M 19.4375 15.824219 C 19.078125 15.824219 18.847656 15.558594 18.847656 15.195312 C 18.847656 14.820312 19.085938 14.550781 19.457031 14.550781 C 19.808594 14.550781 20.046875 14.804688 20.046875 15.175781 C 20.046875 15.558594 19.800781 15.824219 19.4375 15.824219 Z M 19.445312 14.75 C 19.25 14.75 19.125 14.933594 19.125 15.1875 C 19.125 15.441406 19.253906 15.625 19.445312 15.625 C 19.636719 15.625 19.765625 15.429688 19.765625 15.183594 C 19.765625 14.933594 19.636719 14.75 19.445312 14.75 Z M 21.117188 15.796875 L 21.097656 15.65625 L 21.089844 15.65625 C 21.007812 15.769531 20.886719 15.824219 20.734375 15.824219 C 20.515625 15.824219 20.359375 15.671875 20.359375 15.464844 C 20.359375 15.164062 20.621094 15.007812 21.074219 15.007812 L 21.074219 14.984375 C 21.074219 14.824219 20.988281 14.742188 20.820312 14.742188 C 20.699219 14.742188 20.59375 14.773438 20.5 14.835938 L 20.445312 14.65625 C 20.558594 14.585938 20.699219 14.550781 20.863281 14.550781 C 21.183594 14.550781 21.347656 14.71875 21.347656 15.054688 L 21.347656 15.507812 C 21.347656 15.628906 21.351562 15.726562 21.363281 15.796875 Z M 21.082031 15.1875 C 20.777344 15.1875 20.628906 15.261719 20.628906 15.433594 C 20.628906 15.5625 20.707031 15.625 20.8125 15.625 C 20.953125 15.625 21.082031 15.519531 21.082031 15.378906 Z M 22.667969 15.796875 L 22.652344 15.601562 L 22.644531 15.601562 C 22.566406 15.75 22.4375 15.824219 22.253906 15.824219 C 21.957031 15.824219 21.738281 15.566406 21.738281 15.203125 C 21.738281 14.820312 21.964844 14.550781 22.277344 14.550781 C 22.4375 14.550781 22.554688 14.605469 22.621094 14.714844 L 22.625 14.714844 L 22.625 14.011719 L 22.898438 14.011719 L 22.898438 15.46875 C 22.898438 15.585938 22.902344 15.699219 22.910156 15.796875 Z M 22.625 15.078125 C 22.625 14.90625 22.511719 14.761719 22.339844 14.761719 C 22.136719 14.761719 22.015625 14.941406 22.015625 15.191406 C 22.015625 15.4375 22.144531 15.605469 22.335938 15.605469 C 22.503906 15.605469 22.625 15.457031 22.625 15.28125 Z M 24.625 15.824219 C 24.265625 15.824219 24.035156 15.558594 24.035156 15.195312 C 24.035156 14.820312 24.273438 14.550781 24.644531 14.550781 C 24.996094 14.550781 25.234375 14.804688 25.234375 15.175781 C 25.234375 15.558594 24.988281 15.824219 24.625 15.824219 Z M 24.632812 14.75 C 24.4375 14.75 24.3125 14.933594 24.3125 15.1875 C 24.3125 15.441406 24.441406 15.625 24.632812 15.625 C 24.824219 15.625 24.953125 15.429688 24.953125 15.183594 C 24.953125 14.933594 24.824219 14.75 24.632812 14.75 Z M 26.695312 15.796875 L 26.421875 15.796875 L 26.421875 15.09375 C 26.421875 14.878906 26.339844 14.769531 26.175781 14.769531 C 26.015625 14.769531 25.90625 14.910156 25.90625 15.070312 L 25.90625 15.796875 L 25.632812 15.796875 L 25.632812 14.925781 C 25.632812 14.816406 25.628906 14.699219 25.621094 14.574219 L 25.863281 14.574219 L 25.875 14.761719 L 25.882812 14.761719 C 25.957031 14.632812 26.105469 14.550781 26.269531 14.550781 C 26.527344 14.550781 26.695312 14.746094 26.695312 15.066406 Z M 28.527344 14.777344 L 28.226562 14.777344 L 28.226562 15.371094 C 28.226562 15.523438 28.277344 15.597656 28.382812 15.597656 C 28.433594 15.597656 28.472656 15.59375 28.503906 15.585938 L 28.511719 15.792969 C 28.460938 15.8125 28.390625 15.824219 28.300781 15.824219 C 28.085938 15.824219 27.960938 15.707031 27.960938 15.394531 L 27.960938 14.777344 L 27.78125 14.777344 L 27.78125 14.574219 L 27.960938 14.574219 L 27.960938 14.351562 L 28.226562 14.269531 L 28.226562 14.574219 L 28.527344 14.574219 Z M 29.964844 15.796875 L 29.691406 15.796875 L 29.691406 15.101562 C 29.691406 14.882812 29.609375 14.769531 29.445312 14.769531 C 29.304688 14.769531 29.175781 14.867188 29.175781 15.0625 L 29.175781 15.796875 L 28.902344 15.796875 L 28.902344 14.011719 L 29.175781 14.011719 L 29.175781 14.75 L 29.179688 14.75 C 29.265625 14.613281 29.390625 14.550781 29.546875 14.550781 C 29.808594 14.550781 29.964844 14.75 29.964844 15.070312 Z M 31.441406 15.25 L 30.625 15.25 C 30.628906 15.484375 30.78125 15.613281 31.007812 15.613281 C 31.128906 15.613281 31.242188 15.59375 31.339844 15.554688 L 31.382812 15.746094 C 31.265625 15.796875 31.128906 15.820312 30.972656 15.820312 C 30.589844 15.820312 30.363281 15.578125 30.363281 15.203125 C 30.363281 14.828125 30.59375 14.546875 30.941406 14.546875 C 31.253906 14.546875 31.449219 14.777344 31.449219 15.128906 C 31.449219 15.167969 31.449219 15.210938 31.441406 15.25 Z M 31.191406 15.058594 C 31.191406 14.871094 31.09375 14.734375 30.921875 14.734375 C 30.765625 14.734375 30.640625 14.871094 30.625 15.058594 Z M 31.191406 15.058594 "/>
</g>
</svg>
